<svg width="28" height="28" viewBox="0 0 28 28" fill="none" xmlns="http://www.w3.org/2000/svg">
<path d="M11.6667 24.5C12.311 24.5 12.8333 23.9777 12.8333 23.3333C12.8333 22.689 12.311 22.1667 11.6667 22.1667C11.0223 22.1667 10.5 22.689 10.5 23.3333C10.5 23.9777 11.0223 24.5 11.6667 24.5Z" stroke="#143F95" stroke-width="1.5" stroke-linecap="round" stroke-linejoin="round"/>
<path d="M21 24.5C21.6443 24.5 22.1667 23.9777 22.1667 23.3333C22.1667 22.689 21.6443 22.1667 21 22.1667C20.3557 22.1667 19.8333 22.689 19.8333 23.3333C19.8333 23.9777 20.3557 24.5 21 24.5Z" stroke="#143F95" stroke-width="1.5" stroke-linecap="round" stroke-linejoin="round"/>
<path d="M2.33334 3.5H6.41668C6.41668 3.5 6.89844 5.63317 7.20713 7C7.82393 9.73115 8.67108 13.4822 9.1681 15.6829C9.40836 16.7467 10.353 17.5 11.4436 17.5H21.4617C22.5553 17.5 23.5022 16.7404 23.7393 15.6729L25.6667 7" stroke="#143F95" stroke-width="2" stroke-linecap="round" stroke-linejoin="round"/>
<path d="M25.6667 7H7.58334" stroke="#143F95" stroke-width="2" stroke-linecap="round" stroke-linejoin="round"/>
</svg>
