<svg width="163" height="150" viewBox="0 0 163 150" fill="none" xmlns="http://www.w3.org/2000/svg">
<path fill-rule="evenodd" clip-rule="evenodd" d="M73.363 146.683C57.5157 145.028 41.2934 143.786 28.3553 134.487C15.3763 125.158 6.75284 110.979 2.32315 95.6213C-2.00012 80.6324 0.387772 65.1764 3.98584 49.9971C7.90125 33.479 9.627 13.6449 23.9241 4.49236C38.155 -4.6178 56.7625 2.43164 73.363 5.58409C86.9575 8.16573 98.2271 15.2431 110.813 20.9928C127.509 28.6196 150.369 28.5173 159.012 44.7101C167.673 60.9367 157.764 80.6228 151.958 98.076C146.193 115.404 141.295 135.056 125.763 144.662C110.524 154.086 91.1842 148.544 73.363 146.683Z" fill="#F7F7F7"/>
<path d="M107.331 36H55C52.2386 36 50 38.2386 50 41V108.914C50 111.675 52.2386 113.914 55 113.914H107.331C110.092 113.914 112.331 111.675 112.331 108.914V41C112.331 38.2386 110.092 36 107.331 36Z" fill="#AEBCC5"/>
<path d="M67.6972 42.5669H54.3406V51.4713H67.6972V42.5669Z" fill="white"/>
<path d="M106.099 59.9307H54.4531V63.0472H106.099V59.9307Z" fill="white"/>
<path d="M106.099 68.1672H54.4531V71.2838H106.099V68.1672Z" fill="white"/>
<path d="M106.099 76.4038H54.4531V79.5204H106.099V76.4038Z" fill="white"/>
<path d="M106.099 84.6404H54.4531V87.7569H106.099V84.6404Z" fill="white"/>
<path d="M106.099 92.877H54.4531V95.9935H106.099V92.877Z" fill="white"/>
</svg>
