<svg width="163" height="150" viewBox="0 0 163 150" fill="none" xmlns="http://www.w3.org/2000/svg">
<path fill-rule="evenodd" clip-rule="evenodd" d="M73.363 146.683C57.5157 145.028 41.2934 143.786 28.3553 134.487C15.3763 125.158 6.75284 110.979 2.32315 95.6213C-2.00012 80.6324 0.387772 65.1764 3.98584 49.9971C7.90125 33.479 9.627 13.6449 23.9241 4.49236C38.155 -4.6178 56.7625 2.43164 73.363 5.58409C86.9575 8.16573 98.2271 15.2431 110.813 20.9928C127.509 28.6196 150.369 28.5173 159.012 44.7101C167.673 60.9367 157.764 80.6228 151.958 98.076C146.193 115.404 141.295 135.056 125.763 144.662C110.524 154.086 91.1842 148.544 73.363 146.683Z" fill="#F7F7F7"/>
<path d="M99.3312 29H47.0002C44.2388 29 42.0002 31.2386 42.0002 34V101.914C42.0002 104.675 44.2388 106.914 47.0002 106.914H99.3312C102.093 106.914 104.331 104.675 104.331 101.914V34C104.331 31.2386 102.093 29 99.3312 29Z" fill="#AEBCC5"/>
<path d="M59.6975 35.567H46.3408V44.4714H59.6975V35.567Z" fill="white"/>
<path d="M98.099 52.9308H46.4534V56.0473H98.099V52.9308Z" fill="white"/>
<path d="M98.099 61.1672H46.4534V64.2837H98.099V61.1672Z" fill="white"/>
<path d="M98.099 69.4039H46.4534V72.5204H98.099V69.4039Z" fill="white"/>
<path d="M98.099 77.6404H46.4534V80.7569H98.099V77.6404Z" fill="white"/>
<path d="M98.099 85.877H46.4534V88.9935H98.099V85.877Z" fill="white"/>
<path d="M105 121C113.837 121 121 113.837 121 105C121 96.1634 113.837 89 105 89C96.1637 89 89.0002 96.1634 89.0002 105C89.0002 113.837 96.1637 121 105 121Z" fill="#F74B4B"/>
<path d="M105.001 105L111.401 111.4M111.401 98.6001L105.001 105L111.401 98.6001ZM105.001 105L98.6006 111.4L105.001 105ZM105.001 105L98.6006 98.6001L105.001 105Z" stroke="white" stroke-width="2" stroke-linecap="round" stroke-linejoin="round"/>
</svg>
