<svg width="163" height="150" viewBox="0 0 163 150" fill="none" xmlns="http://www.w3.org/2000/svg">
<path fill-rule="evenodd" clip-rule="evenodd" d="M73.363 146.683C57.5157 145.028 41.2934 143.786 28.3553 134.487C15.3763 125.158 6.75284 110.979 2.32315 95.6213C-2.00012 80.6324 0.387772 65.1764 3.98584 49.9971C7.90125 33.479 9.627 13.6449 23.9241 4.49236C38.155 -4.6178 56.7625 2.43164 73.363 5.58409C86.9575 8.16573 98.2271 15.2431 110.813 20.9928C127.509 28.6196 150.369 28.5173 159.012 44.7101C167.673 60.9367 157.764 80.6228 151.958 98.076C146.193 115.404 141.295 135.056 125.763 144.662C110.524 154.086 91.1842 148.544 73.363 146.683Z" fill="#F7F7F7"/>
<path d="M99.3312 29H47.0002C44.2388 29 42.0002 31.2386 42.0002 34V101.914C42.0002 104.675 44.2388 106.914 47.0002 106.914H99.3312C102.093 106.914 104.331 104.675 104.331 101.914V34C104.331 31.2386 102.093 29 99.3312 29Z" fill="#AEBCC5"/>
<path d="M59.6975 35.567H46.3408V44.4714H59.6975V35.567Z" fill="white"/>
<path d="M98.099 52.9308H46.4534V56.0473H98.099V52.9308Z" fill="white"/>
<path d="M98.099 61.1672H46.4534V64.2837H98.099V61.1672Z" fill="white"/>
<path d="M98.099 69.4039H46.4534V72.5204H98.099V69.4039Z" fill="white"/>
<path d="M98.099 77.6404H46.4534V80.7569H98.099V77.6404Z" fill="white"/>
<path d="M98.099 85.877H46.4534V88.9935H98.099V85.877Z" fill="white"/>
<path d="M120.583 105.015C120.58 108.868 119.186 112.591 116.657 115.498C114.129 118.406 110.636 120.304 106.821 120.843C103.006 121.382 99.1244 120.526 95.8897 118.432C92.655 116.339 90.2844 113.148 89.2136 109.447C88.1427 105.745 88.4436 101.782 90.0608 98.2846C91.678 94.7873 94.5029 91.991 98.0166 90.4096C101.53 88.8282 105.497 88.568 109.187 89.6766C112.877 90.7852 116.043 93.1883 118.104 96.4442C119.724 99.0093 120.584 101.981 120.583 105.015Z" fill="#00C67E"/>
<path d="M118.103 96.4444L102.309 112.236C101.316 110.699 95.7859 103.557 95.7859 103.557C96.4946 102.84 97.251 102.173 98.0497 101.558L102.636 107.673L116.254 94.0551C116.944 94.7913 117.563 95.5913 118.103 96.4444Z" fill="white"/>
</svg>
