<svg width="18" height="12" viewBox="0 0 18 12" fill="none" xmlns="http://www.w3.org/2000/svg">
<path d="M15.7852 0H2C0.895431 0 0 0.895431 0 2V10C0 11.1046 0.895433 12 2 12H15.7852C16.8898 12 17.7852 11.1046 17.7852 10V2C17.7852 0.895431 16.8898 0 15.7852 0Z" fill="#00AFCA"/>
<path d="M2.06684 1.44285C2.03905 1.32142 2.03211 1.27857 2.08421 1.225C2.10853 1.2 2.10853 1.15714 2.08421 1.12857C2.0599 1.1 2.01821 1.10357 1.99042 1.12857C1.88274 1.23928 1.91053 1.35357 1.93832 1.47142C1.85495 1.44285 1.76811 1.46428 1.71948 1.525C1.69516 1.55357 1.65 1.63928 1.73684 1.775C1.75769 1.80714 1.7959 1.81428 1.82716 1.79643C1.85842 1.775 1.86537 1.73571 1.848 1.70357C1.81674 1.65357 1.81674 1.62143 1.82369 1.61071C1.83411 1.59643 1.86537 1.58928 1.90011 1.60357C1.92095 1.61071 1.97305 1.63928 1.97305 1.72142C1.97305 1.78571 1.94526 1.84643 1.89316 1.88571C1.84105 1.925 1.77505 1.93571 1.71253 1.91428C1.63263 1.88928 1.58053 1.80357 1.58053 1.70714C1.58053 1.63571 1.59442 1.56785 1.62221 1.50357C1.62569 1.49285 1.72642 1.27857 1.75421 1.2C1.80632 1.04285 1.75421 0.964282 1.71948 0.928568C1.67084 0.885711 1.60137 0.871425 1.54232 0.899996C1.5319 0.903568 1.52495 0.910711 1.518 0.914282C1.51106 0.907139 1.50411 0.903568 1.49369 0.899996C1.43464 0.871425 1.36516 0.885711 1.31653 0.928568C1.28179 0.960711 1.22969 1.04285 1.28179 1.2C1.30611 1.27857 1.40685 1.49285 1.41032 1.5C1.43811 1.56428 1.452 1.63571 1.452 1.70357C1.452 1.8 1.39642 1.88571 1.32 1.91071C1.25748 1.93214 1.19148 1.92142 1.13937 1.88214C1.08727 1.84285 1.05948 1.78214 1.05948 1.71785C1.05948 1.63571 1.11158 1.61071 1.13243 1.6C1.16716 1.58928 1.19843 1.59643 1.20885 1.60714C1.21927 1.61785 1.21579 1.65 1.18453 1.7C1.16369 1.73214 1.17411 1.775 1.20537 1.79285C1.23664 1.81428 1.27832 1.80357 1.29569 1.77143C1.37906 1.63571 1.3339 1.55 1.31306 1.52143C1.2679 1.46071 1.17758 1.43928 1.09422 1.46785C1.12201 1.34643 1.14632 1.23214 1.04211 1.125C1.01779 1.1 0.976111 1.1 0.948322 1.125C0.920532 1.15 0.924006 1.19285 0.948322 1.22142C1.00043 1.275 0.993479 1.32143 0.96569 1.43928C0.948322 1.51071 0.92748 1.60357 0.92748 1.71428C0.92748 1.78928 0.951795 1.86071 0.996953 1.91785H0.993479C0.958743 1.91785 0.92748 1.94643 0.92748 1.98571C0.92748 2.02143 0.955269 2.05357 0.993479 2.05357H0.996953C0.955269 2.11071 0.92748 2.18214 0.92748 2.25714C0.92748 2.36785 0.948322 2.45714 0.96569 2.53214C0.993479 2.65357 1.00043 2.69643 0.948322 2.75C0.924006 2.775 0.924006 2.81785 0.948322 2.84643C0.962216 2.86071 0.979585 2.86785 0.993479 2.86785C1.01085 2.86785 1.02822 2.86071 1.03864 2.84643C1.14632 2.73571 1.11853 2.62143 1.09074 2.50357C1.17411 2.53214 1.26095 2.51071 1.30958 2.45C1.3339 2.42143 1.37906 2.33571 1.29221 2.2C1.27137 2.16785 1.23316 2.16071 1.2019 2.17857C1.17064 2.2 1.16369 2.23928 1.18106 2.27143C1.21232 2.32143 1.21232 2.35357 1.20537 2.36428C1.19495 2.37857 1.16369 2.38571 1.12895 2.37142C1.10811 2.36428 1.05601 2.33571 1.05601 2.25357C1.05601 2.18928 1.08379 2.12857 1.1359 2.08928C1.188 2.05 1.254 2.03928 1.31653 2.06071C1.39642 2.08571 1.44853 2.17143 1.44853 2.26785C1.44853 2.33928 1.43464 2.40714 1.40685 2.47142L0.972637 3.475C0.937901 3.55714 0.920532 3.64285 0.920532 3.73214C0.920532 3.84643 0.972637 3.95357 1.05253 4.01785C0.972637 4.08214 0.920532 4.18928 0.920532 4.30357C0.920532 4.39285 0.937901 4.48214 0.972637 4.56071L1.40337 5.55714C1.43116 5.62143 1.44506 5.69285 1.44506 5.76071C1.44506 5.85714 1.38948 5.94285 1.31306 5.96785C1.25053 5.98928 1.18453 5.97857 1.13243 5.93928C1.08032 5.9 1.05253 5.83928 1.05253 5.775C1.05253 5.69285 1.10464 5.66785 1.12548 5.65714C1.16022 5.64643 1.19148 5.65357 1.2019 5.66428C1.21232 5.675 1.20885 5.70714 1.17758 5.75714C1.15674 5.78928 1.16716 5.83214 1.19843 5.85C1.22969 5.87143 1.27137 5.86071 1.28874 5.82857C1.37211 5.69285 1.32695 5.60714 1.30611 5.57857C1.26095 5.51785 1.17064 5.49643 1.08727 5.525C1.11506 5.40357 1.13937 5.28928 1.03516 5.18214C1.01085 5.15714 0.969164 5.15714 0.941374 5.18214C0.917059 5.20714 0.917059 5.25 0.941374 5.27857C0.993479 5.33214 0.986532 5.37857 0.958743 5.49643C0.941374 5.56785 0.920532 5.66071 0.920532 5.77143C0.920532 5.84643 0.944848 5.91785 0.990006 5.975H0.986532C0.951795 5.975 0.920532 6.00357 0.920532 6.04285C0.920532 6.08214 0.948322 6.11071 0.986532 6.11071H0.990006C0.948322 6.16785 0.920532 6.23928 0.920532 6.31428C0.920532 6.425 0.941374 6.51428 0.958743 6.58928C0.986532 6.71071 0.993479 6.75357 0.941374 6.80714C0.917059 6.83214 0.917059 6.875 0.941374 6.90357C0.955269 6.91785 0.972637 6.925 0.986532 6.925C1.0039 6.925 1.02127 6.91785 1.03169 6.90357C1.13937 6.79285 1.11158 6.67857 1.08379 6.56071C1.16716 6.58928 1.254 6.56785 1.30264 6.50714C1.32695 6.47857 1.37211 6.39285 1.28527 6.25714C1.26443 6.225 1.22622 6.21785 1.19495 6.23571C1.16369 6.25714 1.15674 6.29643 1.17411 6.32857C1.20537 6.37857 1.20537 6.41071 1.19843 6.42143C1.188 6.43571 1.15674 6.44285 1.12201 6.42857C1.10116 6.42143 1.04906 6.39285 1.04906 6.31071C1.04906 6.24643 1.07685 6.18571 1.12895 6.14643C1.18106 6.10714 1.24706 6.09643 1.30958 6.11785C1.38948 6.14285 1.44158 6.22857 1.44158 6.325C1.44158 6.39643 1.42769 6.46428 1.3999 6.52857L0.972637 7.53571C0.937901 7.61785 0.920532 7.70357 0.920532 7.79285C0.920532 7.90714 0.972637 8.01428 1.05253 8.07857C0.972637 8.14285 0.920532 8.25 0.920532 8.36428C0.920532 8.45357 0.937901 8.54285 0.972637 8.62143L1.40337 9.61785C1.43116 9.68214 1.44506 9.75357 1.44506 9.82143C1.44506 9.91785 1.38948 10.0036 1.31306 10.0286C1.25053 10.05 1.18453 10.0393 1.13243 10C1.08032 9.96071 1.05253 9.9 1.05253 9.83571C1.05253 9.75357 1.10464 9.72857 1.12548 9.71785C1.16022 9.70714 1.19148 9.71428 1.2019 9.725C1.21232 9.73571 1.20885 9.76785 1.17758 9.81785C1.15674 9.85 1.16716 9.89285 1.19843 9.91071C1.22969 9.93214 1.27137 9.92143 1.28874 9.88928C1.37211 9.75357 1.32695 9.66785 1.30611 9.63928C1.26095 9.57857 1.17064 9.55714 1.08727 9.58571C1.11506 9.46428 1.13937 9.35 1.03516 9.24285C1.01085 9.21785 0.969164 9.21785 0.941374 9.24285C0.917059 9.26785 0.917059 9.31071 0.941374 9.33928C0.993479 9.39285 0.986532 9.43928 0.958743 9.55714C0.941374 9.62857 0.920532 9.72143 0.920532 9.83214C0.920532 9.93928 0.969164 10.0393 1.05253 10.1036C0.969164 10.1679 0.920532 10.2679 0.920532 10.375C0.920532 10.4857 0.941374 10.575 0.958743 10.65C0.986532 10.7714 0.993479 10.8143 0.941374 10.8679C0.917059 10.8929 0.917059 10.9357 0.941374 10.9643C0.955269 10.9786 0.972637 10.9857 0.986532 10.9857C1.0039 10.9857 1.02127 10.9786 1.03169 10.9643C1.13937 10.8536 1.11158 10.7393 1.08379 10.6214C1.16716 10.65 1.254 10.6286 1.30264 10.5679C1.32695 10.5393 1.37211 10.4536 1.28527 10.3179C1.26443 10.2857 1.22622 10.2786 1.19495 10.2964C1.16369 10.3179 1.15674 10.3571 1.17411 10.3893C1.20537 10.4393 1.20537 10.4714 1.19843 10.4821C1.188 10.4964 1.15674 10.5036 1.12201 10.4893C1.10116 10.4821 1.04906 10.4536 1.04906 10.3714C1.04906 10.3071 1.07685 10.2464 1.12895 10.2071C1.18106 10.1679 1.24706 10.1571 1.30958 10.1786C1.38948 10.2036 1.44158 10.2893 1.44158 10.3857C1.44158 10.4571 1.42769 10.525 1.3999 10.5893C1.39642 10.6 1.29569 10.8143 1.2679 10.8929C1.21579 11.05 1.2679 11.1286 1.30264 11.1643C1.3339 11.1929 1.37211 11.2071 1.41379 11.2071C1.43811 11.2071 1.45895 11.2036 1.47979 11.1929C1.49021 11.1893 1.49716 11.1821 1.50411 11.1786C1.51106 11.1857 1.518 11.1893 1.52842 11.1929C1.54927 11.2036 1.57358 11.2071 1.59442 11.2071C1.63263 11.2071 1.67432 11.1929 1.70558 11.1643C1.74032 11.1321 1.79242 11.05 1.74032 10.8929C1.716 10.8143 1.61527 10.6 1.61179 10.5929C1.584 10.5286 1.57011 10.4571 1.57011 10.3893C1.57011 10.2929 1.62569 10.2071 1.70211 10.1821C1.76463 10.1607 1.83063 10.1714 1.88274 10.2107C1.93484 10.25 1.96263 10.3107 1.96263 10.375C1.96263 10.4571 1.91053 10.4821 1.88969 10.4929C1.85495 10.5036 1.82369 10.4964 1.81327 10.4857C1.80284 10.475 1.80632 10.4429 1.83758 10.3929C1.85842 10.3607 1.848 10.3179 1.81674 10.3C1.78548 10.2786 1.74379 10.2893 1.72642 10.3214C1.64306 10.4571 1.68821 10.5429 1.70906 10.5714C1.75421 10.6321 1.84453 10.6536 1.9279 10.625C1.90011 10.7464 1.87579 10.8607 1.98 10.9679C1.9939 10.9821 2.01126 10.9893 2.02516 10.9893C2.03905 10.9893 2.0599 10.9821 2.07032 10.9679C2.09463 10.9429 2.09463 10.9 2.07032 10.8714C2.01821 10.8179 2.02516 10.7714 2.05295 10.6536C2.07032 10.5821 2.09116 10.4893 2.09116 10.3786C2.09116 10.2714 2.04253 10.1714 1.95916 10.1071C2.04253 10.0429 2.09116 9.94285 2.09116 9.83571C2.09116 9.725 2.07032 9.63571 2.05295 9.56071C2.02516 9.43928 2.01821 9.39643 2.07032 9.34285C2.09463 9.31785 2.09463 9.275 2.07032 9.24643C2.046 9.21785 2.00432 9.22143 1.97653 9.24643C1.86884 9.35714 1.89663 9.47143 1.92442 9.58928C1.84105 9.56071 1.75421 9.58214 1.70558 9.64285C1.68127 9.67143 1.63611 9.75714 1.72295 9.89285C1.74379 9.925 1.782 9.93214 1.81327 9.91428C1.84453 9.89285 1.85148 9.85357 1.83411 9.82143C1.80284 9.77143 1.80284 9.73928 1.80979 9.72857C1.82021 9.71428 1.85148 9.70714 1.88621 9.72143C1.90705 9.72857 1.95916 9.75714 1.95916 9.83928C1.95916 9.90357 1.93137 9.96428 1.87926 10.0036C1.82716 10.0429 1.76116 10.0536 1.69863 10.0321C1.61874 10.0071 1.56663 9.92143 1.56663 9.825C1.56663 9.75357 1.58053 9.68571 1.60832 9.62143L2.03905 8.625C2.07379 8.54285 2.09116 8.45714 2.09116 8.36785C2.09116 8.25357 2.03905 8.14643 1.95916 8.08214C2.03905 8.01785 2.09116 7.91071 2.09116 7.79643C2.09116 7.70714 2.07379 7.61785 2.03905 7.53928L1.60832 6.54285C1.58053 6.47857 1.56663 6.40714 1.56663 6.33928C1.56663 6.24285 1.62221 6.15714 1.69863 6.13214C1.76116 6.11071 1.82716 6.12143 1.87926 6.16071C1.93137 6.2 1.95916 6.26071 1.95916 6.325C1.95916 6.40714 1.90705 6.43214 1.88621 6.44285C1.85148 6.45357 1.82021 6.44643 1.80979 6.43571C1.79937 6.425 1.80284 6.39285 1.83411 6.34285C1.85495 6.31071 1.84453 6.26785 1.81327 6.25C1.782 6.22857 1.74032 6.23928 1.72295 6.27143C1.63958 6.40714 1.68474 6.49285 1.70558 6.52143C1.75074 6.58214 1.84105 6.60357 1.92442 6.575C1.89663 6.69643 1.87232 6.81071 1.97653 6.91785C1.99042 6.93214 2.00779 6.93928 2.02169 6.93928C2.03558 6.93928 2.05642 6.93214 2.06684 6.91785C2.09116 6.89285 2.09116 6.85 2.06684 6.82143C2.01474 6.76785 2.02169 6.72143 2.04947 6.60357C2.06684 6.53214 2.08769 6.43928 2.08769 6.32857C2.08769 6.25357 2.06337 6.18214 2.01821 6.125H2.02169C2.05642 6.125 2.08769 6.09643 2.08769 6.05714C2.08769 6.02143 2.0599 5.98928 2.02169 5.98928H2.01821C2.0599 5.93214 2.08769 5.86071 2.08769 5.78571C2.08769 5.675 2.06684 5.58571 2.04947 5.51071C2.02169 5.38928 2.01474 5.34643 2.06684 5.29285C2.09116 5.26785 2.09116 5.225 2.06684 5.19643C2.04253 5.16785 2.00084 5.17143 1.97305 5.19643C1.86537 5.30714 1.89316 5.42143 1.92095 5.53928C1.83758 5.51071 1.75074 5.53214 1.70211 5.59285C1.67779 5.62143 1.63263 5.70714 1.71948 5.84285C1.74032 5.875 1.77853 5.88214 1.80979 5.86428C1.84105 5.84285 1.848 5.80357 1.83063 5.77143C1.79937 5.72143 1.79937 5.68928 1.80632 5.67857C1.81674 5.66428 1.848 5.65714 1.88274 5.67143C1.90358 5.67857 1.95569 5.70714 1.95569 5.78928C1.95569 5.85357 1.9279 5.91428 1.87579 5.95357C1.82369 5.99285 1.75769 6.00357 1.69516 5.98214C1.61527 5.95714 1.56316 5.87143 1.56316 5.775C1.56316 5.70357 1.57706 5.63571 1.60485 5.57143L2.03558 4.575C2.07032 4.49285 2.08769 4.40714 2.08769 4.31785C2.08769 4.20357 2.03558 4.09643 1.95569 4.03214C2.03558 3.96785 2.08769 3.86071 2.08769 3.74642C2.08769 3.65714 2.07032 3.56785 2.03558 3.48928L1.60485 2.49285C1.57706 2.42857 1.56316 2.35714 1.56316 2.28928C1.56316 2.19285 1.61874 2.10714 1.69516 2.08214C1.75769 2.06071 1.82369 2.07143 1.87579 2.11071C1.9279 2.15 1.95569 2.21071 1.95569 2.275C1.95569 2.35714 1.90358 2.38214 1.88274 2.39285C1.848 2.40357 1.81674 2.39643 1.80632 2.38571C1.7959 2.375 1.79937 2.34285 1.83063 2.29285C1.85148 2.26071 1.84105 2.21785 1.80979 2.2C1.77853 2.17857 1.73684 2.18928 1.71948 2.22142C1.63611 2.35714 1.68127 2.44285 1.70211 2.47142C1.74727 2.53214 1.83758 2.55357 1.92095 2.525C1.89316 2.64643 1.86884 2.76071 1.97305 2.86785C1.98695 2.88214 2.00432 2.88928 2.01821 2.88928C2.03211 2.88928 2.05295 2.88214 2.06337 2.86785C2.08769 2.84285 2.08769 2.8 2.06337 2.77143C2.01126 2.71785 2.01821 2.67143 2.046 2.55357C2.06337 2.48214 2.08421 2.38928 2.08421 2.27857C2.08421 2.20357 2.0599 2.13214 2.01474 2.075H2.01821C2.05295 2.075 2.08421 2.04642 2.08421 2.00714C2.08421 1.97142 2.05642 1.93928 2.01821 1.93928H2.01474C2.05642 1.88214 2.08421 1.81071 2.08421 1.73571C2.10505 1.60714 2.08421 1.51785 2.06684 1.44285ZM1.3999 1.15714C1.37558 1.08571 1.386 1.04285 1.3999 1.02857C1.41032 1.01785 1.42421 1.01785 1.43464 1.025C1.44506 1.03214 1.44506 1.03928 1.44506 1.04285C1.44506 1.07857 1.47285 1.11071 1.51106 1.11071C1.54579 1.11071 1.57706 1.08214 1.57706 1.04285C1.57706 1.03928 1.57706 1.02857 1.58748 1.025C1.5979 1.02142 1.61179 1.02143 1.62221 1.02857C1.63611 1.04285 1.64653 1.08571 1.62221 1.15714C1.60485 1.21071 1.54232 1.34642 1.50758 1.41785C1.47979 1.34642 1.41727 1.20714 1.3999 1.15714ZM1.51106 3.95C1.52842 3.975 1.55274 4 1.57706 4.02143C1.55274 4.04285 1.52842 4.06428 1.51106 4.09285C1.49369 4.06785 1.46937 4.04285 1.44506 4.02143C1.47285 4 1.49369 3.975 1.51106 3.95ZM1.51106 8.00714C1.52842 8.03214 1.55274 8.05714 1.57706 8.07857C1.55274 8.1 1.52842 8.12143 1.51106 8.15C1.49369 8.125 1.46937 8.1 1.44506 8.07857C1.47285 8.06071 1.49369 8.03571 1.51106 8.00714ZM1.62569 10.9429C1.65 11.0143 1.63958 11.0571 1.62569 11.0714C1.61527 11.0821 1.60137 11.0821 1.59095 11.075C1.58053 11.0679 1.58053 11.0607 1.58053 11.0571C1.58053 11.0214 1.55274 10.9893 1.51453 10.9893C1.47632 10.9893 1.44853 11.0179 1.44853 11.0571C1.44853 11.0607 1.44853 11.0714 1.43811 11.075C1.42769 11.0786 1.41379 11.0786 1.40337 11.0714C1.38948 11.0571 1.37906 11.0143 1.40337 10.9429C1.42074 10.8893 1.48327 10.7536 1.518 10.6821C1.54579 10.7536 1.60832 10.8893 1.62569 10.9429ZM1.57706 10.1107C1.55274 10.1321 1.52842 10.1536 1.51106 10.1821C1.49369 10.1536 1.46937 10.1321 1.44506 10.1107C1.46937 10.0893 1.49369 10.0679 1.51106 10.0393C1.5319 10.0679 1.55274 10.0893 1.57706 10.1107ZM1.93137 8.56785L1.51106 9.53571L1.09074 8.56785C1.06295 8.50357 1.04906 8.43214 1.04906 8.36428C1.04906 8.26785 1.10464 8.18214 1.18106 8.15714C1.24358 8.13571 1.30958 8.14643 1.36169 8.18571C1.41379 8.225 1.44158 8.28571 1.44158 8.35C1.44158 8.43214 1.38948 8.45714 1.36864 8.46785C1.3339 8.47857 1.30264 8.47143 1.29221 8.46071C1.28179 8.45 1.28527 8.41785 1.31653 8.36785C1.33737 8.33571 1.32695 8.29285 1.29569 8.275C1.26443 8.25357 1.22274 8.26428 1.20537 8.29643C1.12201 8.43214 1.16716 8.51785 1.188 8.54643C1.23664 8.60714 1.32695 8.62857 1.41032 8.6C1.42074 8.59643 1.43116 8.59285 1.43811 8.58571V8.75714C1.43464 8.72143 1.40685 8.69285 1.37211 8.69285C1.33737 8.69285 1.30611 8.72143 1.30611 8.76071C1.30611 8.80357 1.33737 8.88214 1.43811 8.90357V9.02857C1.43811 9.06428 1.4659 9.09643 1.50411 9.09643C1.54232 9.09643 1.57011 9.06785 1.57011 9.02857V8.90357C1.67084 8.87857 1.70211 8.80357 1.70211 8.76071C1.70211 8.725 1.67432 8.68928 1.63611 8.68928C1.60137 8.68928 1.57011 8.71785 1.57011 8.75357V8.58214C1.58053 8.58571 1.59095 8.59285 1.5979 8.59643C1.68474 8.62857 1.77158 8.60714 1.82021 8.54285C1.84453 8.51428 1.88969 8.42857 1.80284 8.29285C1.782 8.26071 1.74379 8.25357 1.71253 8.27143C1.68127 8.29285 1.67432 8.33214 1.69169 8.36428C1.72295 8.41428 1.72295 8.44643 1.716 8.45714C1.70558 8.47143 1.67432 8.47857 1.63958 8.46428C1.61874 8.45714 1.56663 8.42857 1.56663 8.34643C1.56663 8.28214 1.59442 8.22143 1.64653 8.18214C1.69863 8.14285 1.76463 8.13214 1.82716 8.15357C1.90705 8.17857 1.95916 8.26428 1.95916 8.36071C1.97305 8.43571 1.95916 8.50357 1.93137 8.56785ZM1.93137 7.58928C1.95916 7.65357 1.97305 7.725 1.97305 7.79285C1.97305 7.88928 1.91748 7.975 1.84105 8C1.77853 8.02143 1.71253 8.01071 1.66042 7.97143C1.60832 7.93214 1.58053 7.87143 1.58053 7.80714C1.58053 7.725 1.63263 7.7 1.65348 7.68928C1.68821 7.67857 1.71948 7.68571 1.7299 7.69643C1.74032 7.70714 1.73684 7.73928 1.70558 7.78928C1.68474 7.82143 1.69516 7.86428 1.72642 7.88214C1.75769 7.90357 1.79937 7.89285 1.81674 7.86071C1.90011 7.725 1.85495 7.63928 1.83411 7.61071C1.78548 7.55 1.69516 7.52857 1.61179 7.55714C1.60137 7.56071 1.59095 7.56428 1.584 7.57143V7.4C1.58748 7.43571 1.61527 7.46428 1.65 7.46428C1.68474 7.46428 1.716 7.43571 1.716 7.39643C1.716 7.35357 1.68474 7.275 1.584 7.25357V7.12857C1.584 7.09285 1.55621 7.06071 1.518 7.06071C1.47979 7.06071 1.452 7.08928 1.452 7.12857V7.25357C1.35127 7.27857 1.32 7.35357 1.32 7.39643C1.32 7.43214 1.34779 7.46785 1.386 7.46785C1.42074 7.46785 1.452 7.43928 1.452 7.40357V7.575C1.44158 7.57143 1.43116 7.56428 1.42421 7.56071C1.33737 7.52857 1.25053 7.55 1.2019 7.61428C1.17758 7.64285 1.13243 7.72857 1.21927 7.86428C1.24011 7.89643 1.27832 7.90357 1.30958 7.88571C1.34085 7.86428 1.34779 7.825 1.33043 7.79285C1.29916 7.74285 1.29916 7.71071 1.30611 7.7C1.31653 7.68571 1.34779 7.67857 1.38253 7.69285C1.40337 7.7 1.45548 7.72857 1.45548 7.81071C1.45548 7.875 1.42769 7.93571 1.37558 7.975C1.32348 8.01428 1.25748 8.025 1.19495 8.00357C1.11506 7.97857 1.06295 7.89285 1.06295 7.79643C1.06295 7.725 1.07685 7.65714 1.10464 7.59285L1.52495 6.625L1.93137 7.58928ZM1.57706 6.05C1.55274 6.07143 1.52842 6.09285 1.51106 6.12143C1.49369 6.09285 1.46937 6.07143 1.44506 6.05C1.46937 6.02857 1.49369 6.00714 1.51106 5.97857C1.5319 6.00714 1.55274 6.02857 1.57706 6.05ZM1.93137 4.50714L1.51106 5.475L1.09074 4.50714C1.06295 4.44285 1.04906 4.37143 1.04906 4.30357C1.04906 4.20714 1.10464 4.12143 1.18106 4.09643C1.24358 4.075 1.30958 4.08571 1.36169 4.125C1.41379 4.16428 1.44158 4.225 1.44158 4.28928C1.44158 4.37143 1.38948 4.39643 1.36864 4.40714C1.3339 4.41785 1.30264 4.41071 1.29221 4.4C1.28179 4.38928 1.28527 4.35714 1.31653 4.30714C1.33737 4.275 1.32695 4.23214 1.29569 4.21428C1.26443 4.19285 1.22274 4.20357 1.20537 4.23571C1.12201 4.37143 1.16716 4.45714 1.188 4.48571C1.23664 4.54643 1.32695 4.56785 1.41032 4.53928C1.42074 4.53571 1.43116 4.53214 1.43811 4.525V4.69643C1.43464 4.66071 1.40685 4.63214 1.37211 4.63214C1.33737 4.63214 1.30611 4.66071 1.30611 4.7C1.30611 4.74285 1.33737 4.82143 1.43811 4.84285V4.96785C1.43811 5.00357 1.4659 5.03571 1.50411 5.03571C1.54232 5.03571 1.57011 5.00714 1.57011 4.96785V4.84285C1.67084 4.81785 1.70211 4.74285 1.70211 4.7C1.70211 4.66428 1.67432 4.62857 1.63611 4.62857C1.60137 4.62857 1.57011 4.65714 1.57011 4.69285V4.52143C1.58053 4.525 1.59095 4.53214 1.5979 4.53571C1.68474 4.56785 1.77158 4.54643 1.82021 4.48214C1.84453 4.45357 1.88969 4.36785 1.80284 4.23214C1.782 4.2 1.74379 4.19285 1.71253 4.21071C1.68127 4.23214 1.67432 4.27143 1.69169 4.30357C1.72295 4.35357 1.72295 4.38571 1.716 4.39643C1.70558 4.41071 1.67432 4.41785 1.63958 4.40357C1.61874 4.39643 1.56663 4.36785 1.56663 4.28571C1.56663 4.22143 1.59442 4.16071 1.64653 4.12142C1.69863 4.08214 1.76463 4.07143 1.82716 4.09285C1.90705 4.11785 1.95916 4.20357 1.95916 4.3C1.97305 4.375 1.95916 4.44642 1.93137 4.50714ZM1.93137 3.53214C1.95916 3.59642 1.97305 3.66785 1.97305 3.73571C1.97305 3.83214 1.91748 3.91785 1.84105 3.94285C1.77853 3.96428 1.71253 3.95357 1.66042 3.91428C1.60832 3.875 1.58053 3.81428 1.58053 3.75C1.58053 3.66785 1.63263 3.64285 1.65348 3.63214C1.68821 3.62143 1.71948 3.62857 1.7299 3.63928C1.74032 3.65 1.73684 3.68214 1.70558 3.73214C1.68474 3.76428 1.69516 3.80714 1.72642 3.825C1.75769 3.84643 1.79937 3.83571 1.81674 3.80357C1.90011 3.66785 1.85495 3.58214 1.83411 3.55357C1.78548 3.49285 1.69516 3.47143 1.61179 3.5C1.60137 3.50357 1.59095 3.50714 1.584 3.51428V3.34285C1.58748 3.37857 1.61527 3.40714 1.65 3.40714C1.68474 3.40714 1.716 3.37857 1.716 3.33928C1.716 3.29643 1.68474 3.21785 1.584 3.19643V3.07143C1.584 3.03571 1.55621 3.00357 1.518 3.00357C1.47979 3.00357 1.452 3.03214 1.452 3.07143V3.19643C1.35127 3.22143 1.32 3.29643 1.32 3.33928C1.32 3.375 1.34779 3.41071 1.386 3.41071C1.42074 3.41071 1.452 3.38214 1.452 3.34643V3.51785C1.44158 3.51428 1.43116 3.50714 1.42421 3.50357C1.33737 3.47143 1.25053 3.49285 1.2019 3.55714C1.17758 3.58571 1.13243 3.67143 1.21927 3.80714C1.24011 3.83928 1.27832 3.84643 1.30958 3.82857C1.34085 3.80714 1.34779 3.76785 1.33043 3.73571C1.29916 3.68571 1.29916 3.65357 1.30611 3.64285C1.31653 3.62857 1.34779 3.62143 1.38253 3.63571C1.40337 3.64285 1.45548 3.67143 1.45548 3.75357C1.45548 3.81785 1.42769 3.87857 1.37558 3.91785C1.32348 3.95714 1.25748 3.96785 1.19495 3.94643C1.11506 3.92143 1.06295 3.83571 1.06295 3.73928C1.06295 3.66785 1.07685 3.6 1.10464 3.53571L1.52495 2.56785L1.93137 3.53214ZM1.44506 1.98928C1.46937 1.96785 1.49369 1.94642 1.51106 1.91785C1.52842 1.94642 1.55274 1.96785 1.57706 1.98928C1.55274 2.01071 1.52842 2.03214 1.51106 2.06071C1.49369 2.03214 1.47285 2.01071 1.44506 1.98928Z" fill="#FEC50C"/>
<path d="M9.40315 6.87848C10.278 6.87848 10.9871 6.14934 10.9871 5.24991C10.9871 4.35047 10.278 3.62134 9.40315 3.62134C8.52833 3.62134 7.81915 4.35047 7.81915 5.24991C7.81915 6.14934 8.52833 6.87848 9.40315 6.87848Z" fill="#FEC50C"/>
<path d="M9.52491 3.17486C9.52491 3.24271 9.4728 3.29629 9.4068 3.29629C9.3408 3.29629 9.2887 3.24271 9.2887 3.17486C9.2887 3.107 9.4068 2.80701 9.4068 2.80701C9.4068 2.80701 9.52491 3.107 9.52491 3.17486Z" fill="#FEC50C"/>
<path d="M9.28531 7.32822C9.28531 7.26036 9.33741 7.20679 9.40341 7.20679C9.46941 7.20679 9.52152 7.26036 9.52152 7.32822C9.52152 7.39607 9.40341 7.69607 9.40341 7.69607C9.40341 7.69607 9.28531 7.39607 9.28531 7.32822Z" fill="#FEC50C"/>
<path d="M11.4249 5.37518C11.3589 5.37518 11.3068 5.32161 11.3068 5.25375C11.3068 5.1859 11.3589 5.13232 11.4249 5.13232C11.4909 5.13232 11.7827 5.25375 11.7827 5.25375C11.7827 5.25375 11.4909 5.37518 11.4249 5.37518Z" fill="#FEC50C"/>
<path d="M7.38522 5.12842C7.45122 5.12842 7.50333 5.18199 7.50333 5.24985C7.50333 5.3177 7.45122 5.37127 7.38522 5.37127C7.31922 5.37127 7.02744 5.24985 7.02744 5.24985C7.02744 5.24985 7.31922 5.12842 7.38522 5.12842Z" fill="#FEC50C"/>
<path d="M10.9178 3.86801C10.8727 3.91443 10.7962 3.91443 10.7511 3.86801C10.7059 3.82158 10.7059 3.743 10.7511 3.69658C10.7962 3.65015 11.088 3.52515 11.088 3.52515C11.088 3.52515 10.963 3.82158 10.9178 3.86801Z" fill="#FEC50C"/>
<path d="M7.89238 6.63199C7.93753 6.58556 8.01395 6.58556 8.05911 6.63199C8.10427 6.67842 8.10427 6.75699 8.05911 6.80341C8.01395 6.84984 7.72217 6.97484 7.72217 6.97484C7.72217 6.97484 7.84722 6.68199 7.89238 6.63199Z" fill="#FEC50C"/>
<path d="M10.7477 6.80732C10.7025 6.76089 10.7025 6.68232 10.7477 6.6359C10.7929 6.58947 10.8693 6.58947 10.9144 6.6359C10.9596 6.68232 11.0812 6.98232 11.0812 6.98232C11.0812 6.98232 10.7963 6.85375 10.7477 6.80732Z" fill="#FEC50C"/>
<path d="M8.05899 3.69624C8.10415 3.74267 8.10415 3.82124 8.05899 3.86766C8.01384 3.91409 7.93742 3.91409 7.89226 3.86766C7.8471 3.82124 7.72552 3.52124 7.72552 3.52124C7.72552 3.52124 8.01384 3.64981 8.05899 3.69624Z" fill="#FEC50C"/>
<path d="M8.74324 3.28529C8.76755 3.346 8.73977 3.41743 8.67724 3.446C8.61819 3.471 8.54871 3.44243 8.52092 3.37815C8.49661 3.31743 8.49313 2.99243 8.49313 2.99243C8.49313 2.99243 8.71545 3.22457 8.74324 3.28529Z" fill="#FEC50C"/>
<path d="M10.0666 7.21784C10.0423 7.15712 10.0701 7.08569 10.1326 7.05712C10.1951 7.02855 10.2611 7.06069 10.2889 7.12498C10.3167 7.18927 10.3167 7.5107 10.3167 7.5107C10.3167 7.5107 10.0944 7.27855 10.0666 7.21784Z" fill="#FEC50C"/>
<path d="M11.3171 4.56793C11.2581 4.59293 11.1886 4.56436 11.1608 4.50008C11.133 4.43579 11.1643 4.36793 11.2268 4.33936C11.2859 4.31436 11.602 4.31079 11.602 4.31079C11.602 4.31079 11.3762 4.54293 11.3171 4.56793Z" fill="#FEC50C"/>
<path d="M7.49273 5.93209C7.55178 5.90709 7.62125 5.93566 7.64904 5.99994C7.67336 6.06066 7.64557 6.13209 7.58304 6.16066C7.52052 6.18923 7.20789 6.18923 7.20789 6.18923C7.20789 6.18923 7.43367 5.96066 7.49273 5.93209Z" fill="#FEC50C"/>
<path d="M10.2891 3.37814C10.2648 3.43886 10.1954 3.471 10.1328 3.446C10.0738 3.421 10.0425 3.34957 10.0668 3.28529C10.0911 3.22457 10.3135 2.99243 10.3135 2.99243C10.3135 2.99243 10.3135 3.31743 10.2891 3.37814Z" fill="#FEC50C"/>
<path d="M8.52084 7.12521C8.54515 7.0645 8.61463 7.03236 8.67716 7.05736C8.73621 7.08236 8.76747 7.15378 8.74316 7.21807C8.71884 7.27878 8.49652 7.51092 8.49652 7.51092C8.49652 7.51092 8.49652 7.18593 8.52084 7.12521Z" fill="#FEC50C"/>
<path d="M11.227 6.15702C11.168 6.13202 11.1367 6.06059 11.161 5.99631C11.1854 5.93559 11.2548 5.90345 11.3174 5.92845C11.3799 5.95345 11.6022 6.18201 11.6022 6.18201C11.6022 6.18201 11.2861 6.18559 11.227 6.15702Z" fill="#FEC50C"/>
<path d="M7.58305 4.34287C7.6421 4.36787 7.67336 4.4393 7.64905 4.50358C7.62473 4.56429 7.55526 4.59643 7.49273 4.57143C7.43368 4.54643 7.20789 4.31787 7.20789 4.31787C7.20789 4.31787 7.52399 4.31787 7.58305 4.34287Z" fill="#FEC50C"/>
<path d="M9.12882 3.18923C9.14272 3.25709 9.10104 3.32137 9.03504 3.33209C8.96904 3.34637 8.90651 3.30352 8.89609 3.23566C8.88219 3.1678 8.94472 2.85352 8.94472 2.85352C8.94472 2.85352 9.11493 3.12494 9.12882 3.18923Z" fill="#FEC50C"/>
<path d="M9.68123 7.31015C9.66733 7.2423 9.70902 7.17801 9.77502 7.1673C9.84102 7.15301 9.90354 7.19587 9.91397 7.26372C9.92786 7.33158 9.86533 7.64587 9.86533 7.64587C9.86533 7.64587 9.69512 7.37801 9.68123 7.31015Z" fill="#FEC50C"/>
<path d="M11.4075 4.9645C11.3415 4.97879 11.2789 4.93593 11.2685 4.86807C11.2546 4.80022 11.2963 4.73593 11.3623 4.72522C11.4283 4.71093 11.734 4.77522 11.734 4.77522C11.734 4.77522 11.4735 4.95379 11.4075 4.9645Z" fill="#FEC50C"/>
<path d="M7.39885 5.53546C7.46485 5.52117 7.52738 5.56403 7.5378 5.63189C7.55169 5.69975 7.51001 5.76403 7.44401 5.77475C7.37801 5.78903 7.07233 5.72475 7.07233 5.72475C7.07233 5.72475 7.33632 5.54975 7.39885 5.53546Z" fill="#FEC50C"/>
<path d="M10.6261 3.59311C10.5914 3.65025 10.515 3.66454 10.4629 3.62525C10.4108 3.58597 10.3934 3.51097 10.4316 3.4574C10.4663 3.40025 10.7269 3.22168 10.7269 3.22168C10.7269 3.22168 10.6609 3.53597 10.6261 3.59311Z" fill="#FEC50C"/>
<path d="M8.18378 6.911C8.21851 6.85386 8.29493 6.83957 8.34704 6.87886C8.40262 6.91457 8.41651 6.99315 8.3783 7.04672C8.34357 7.10387 8.08304 7.28244 8.08304 7.28244C8.08304 7.28244 8.14557 6.96815 8.18378 6.911Z" fill="#FEC50C"/>
<path d="M11.0186 6.50736C10.963 6.47165 10.9491 6.39307 10.9873 6.3395C11.0256 6.28593 11.0985 6.26807 11.1506 6.30736C11.2062 6.34307 11.3799 6.61094 11.3799 6.61094C11.3799 6.61094 11.0742 6.54308 11.0186 6.50736Z" fill="#FEC50C"/>
<path d="M7.79153 3.99688C7.84711 4.0326 7.861 4.11117 7.82279 4.16474C7.78806 4.22189 7.71164 4.23617 7.65953 4.19688C7.60743 4.1576 7.43027 3.89331 7.43027 3.89331C7.43027 3.89331 7.73595 3.9576 7.79153 3.99688Z" fill="#FEC50C"/>
<path d="M8.38214 3.45739C8.41688 3.51454 8.40298 3.58954 8.35088 3.62525C8.29877 3.66097 8.22235 3.64668 8.18762 3.59311C8.15288 3.53597 8.08688 3.22168 8.08688 3.22168C8.08688 3.22168 8.34393 3.40025 8.38214 3.45739Z" fill="#FEC50C"/>
<path d="M10.4279 7.04688C10.3931 6.98974 10.407 6.91474 10.4591 6.87903C10.5147 6.84331 10.5877 6.8576 10.6224 6.91117C10.6571 6.96831 10.7231 7.28258 10.7231 7.28258C10.7231 7.28258 10.4661 7.10402 10.4279 7.04688Z" fill="#FEC50C"/>
<path d="M11.1503 4.1998C11.0947 4.23551 11.0217 4.22123 10.987 4.16766C10.9523 4.11052 10.9662 4.03552 11.0183 3.99981C11.0738 3.96409 11.3795 3.89624 11.3795 3.89624C11.3795 3.89624 11.2058 4.16052 11.1503 4.1998Z" fill="#FEC50C"/>
<path d="M7.65953 6.30359C7.71511 6.26787 7.78806 6.28216 7.82279 6.33573C7.85753 6.39287 7.84364 6.46786 7.79153 6.50358C7.73595 6.53929 7.43027 6.60714 7.43027 6.60714C7.43027 6.60714 7.60395 6.3393 7.65953 6.30359Z" fill="#FEC50C"/>
<path d="M9.9138 3.23969C9.8999 3.30754 9.83737 3.3504 9.77485 3.33611C9.71232 3.32183 9.66716 3.25754 9.68105 3.19326C9.69495 3.12897 9.86864 2.85754 9.86864 2.85754C9.86864 2.85754 9.92769 3.17183 9.9138 3.23969Z" fill="#FEC50C"/>
<path d="M8.89272 7.26372C8.90662 7.19587 8.96914 7.15301 9.03167 7.1673C9.0942 7.18158 9.13936 7.24587 9.12546 7.31015C9.11157 7.37801 8.93788 7.64587 8.93788 7.64587C8.93788 7.64587 8.8823 7.33158 8.89272 7.26372Z" fill="#FEC50C"/>
<path d="M11.3623 5.77474C11.2963 5.76046 11.2546 5.69617 11.2685 5.63189C11.2824 5.56403 11.3449 5.52117 11.4075 5.53546C11.47 5.54975 11.734 5.72831 11.734 5.72831C11.734 5.72831 11.4283 5.78903 11.3623 5.77474Z" fill="#FEC50C"/>
<path d="M7.44736 4.72522C7.51336 4.7395 7.55505 4.80378 7.54115 4.86807C7.52726 4.93235 7.46473 4.97878 7.40221 4.96449C7.33968 4.95021 7.07568 4.77164 7.07568 4.77164C7.07568 4.77164 7.38137 4.7145 7.44736 4.72522Z" fill="#FEC50C"/>
<path d="M13.1306 5.67885C13.0854 5.65742 13.0298 5.68242 13.0125 5.72885C13.0125 5.72885 13.009 5.73242 13.0055 5.74314C12.936 5.90742 12.7936 6.15028 12.6512 6.37528C12.7832 5.93242 12.9083 5.46099 12.9152 5.42885C12.9291 5.37885 12.8978 5.32885 12.8527 5.31456C12.804 5.30028 12.7554 5.32885 12.7415 5.37885C12.679 5.60742 12.5505 5.91099 12.4324 6.16814C12.4532 5.88242 12.4567 5.61814 12.4567 5.60028C12.4567 5.55028 12.4185 5.50742 12.3698 5.50385C12.3247 5.50385 12.2795 5.53956 12.276 5.58956C12.1614 7.23599 10.6191 7.97171 10.4697 8.03956C10.3898 8.04671 10.0251 8.08956 9.69511 8.20742C9.6569 8.22171 9.62564 8.23599 9.59437 8.24671C9.58395 8.24314 9.57006 8.23956 9.55616 8.23956C8.53838 8.31456 7.72554 7.88599 7.14196 6.96456C6.70428 6.27528 6.56533 5.54314 6.56533 5.53599C6.55491 5.48599 6.50976 5.45385 6.45765 5.46099C6.40902 5.47171 6.37428 5.51814 6.3847 5.57171C6.38818 5.59314 6.4507 5.91099 6.61744 6.32885C6.39512 5.96457 6.23881 5.52528 6.18323 5.29671C6.18323 5.29314 6.17976 5.28956 6.17628 5.28599C6.17281 5.27885 6.17281 5.27171 6.16934 5.26814C6.16586 5.26456 6.16239 5.26099 6.15892 5.25742C6.15544 5.25028 6.14849 5.24671 6.14155 5.24314C6.13807 5.23956 6.1346 5.23956 6.13113 5.23956C6.12418 5.23599 6.11723 5.23242 6.11028 5.23242C6.10681 5.23242 6.09986 5.23242 6.09292 5.23242C6.08597 5.23242 6.08249 5.23242 6.07555 5.23242H6.07207H6.0686C6.06513 5.23242 6.06165 5.23599 6.05471 5.23956C6.04776 5.24314 6.04428 5.24314 6.03734 5.24671C6.03386 5.25028 6.03039 5.25385 6.02344 5.25742C6.01997 5.26099 6.01649 5.26456 6.01302 5.27171C6.00955 5.27528 6.00955 5.28242 6.00607 5.28956C6.0026 5.29671 6.0026 5.30028 5.99913 5.30742C5.99913 5.31456 5.99913 5.31814 5.99913 5.32528C5.99913 5.32885 5.99913 5.33599 5.99913 5.33956C5.99913 5.34314 5.99913 5.34314 5.99913 5.34671C6.0547 5.68599 6.19018 6.03957 6.31176 6.31099C6.1207 6.08599 5.95744 5.82885 5.90186 5.67528C5.90186 5.67171 5.89839 5.66814 5.89492 5.66456C5.89144 5.65742 5.88797 5.65028 5.8845 5.64671C5.88102 5.64314 5.87755 5.63956 5.87407 5.63599C5.86713 5.63242 5.86365 5.62528 5.85671 5.62528C5.85323 5.62171 5.84976 5.62171 5.84281 5.62171C5.83586 5.61814 5.82892 5.61814 5.82197 5.61814C5.81502 5.61814 5.81155 5.61814 5.8046 5.62171C5.79765 5.62171 5.79418 5.62171 5.79071 5.62171C5.79071 5.62171 5.79071 5.62171 5.78723 5.62171H5.78376C5.78029 5.62528 5.77681 5.62885 5.76986 5.62885C5.76639 5.63242 5.75944 5.63599 5.75597 5.63956C5.7525 5.64314 5.74902 5.65028 5.74555 5.65385C5.74207 5.65742 5.7386 5.66099 5.73513 5.66814C5.73165 5.67528 5.73165 5.67885 5.73165 5.68599C5.73165 5.69314 5.72818 5.69671 5.72818 5.70385C5.72818 5.71099 5.72818 5.71456 5.73165 5.72171C5.73165 5.72528 5.73165 5.73242 5.73165 5.73599C5.82892 6.06456 6.0686 6.45385 6.25618 6.72885C6.09986 6.60742 5.98523 6.47171 5.95397 6.43242C5.95049 6.42885 5.94702 6.42528 5.94355 6.41814C5.91228 6.37885 5.85323 6.37171 5.81502 6.40385C5.77681 6.43599 5.76986 6.49314 5.80113 6.53599C5.80113 6.53956 5.80807 6.54671 5.82197 6.56099C5.95744 6.72885 6.10681 6.88242 6.24228 7.01456L6.05818 6.93242C6.01649 6.91456 5.96786 6.92885 5.94355 6.97171C5.91923 7.01099 5.92965 7.06456 5.96786 7.09314C5.98523 7.10742 6.31176 7.35742 6.59312 7.50385C6.56533 7.50385 6.53407 7.50385 6.49933 7.50028C6.45765 7.49671 6.41597 7.52885 6.40555 7.57171C6.39512 7.61814 6.41944 7.66099 6.45765 7.67885C6.4646 7.68242 6.55144 7.71814 6.65565 7.75742C6.63133 7.76814 6.61049 7.78956 6.60355 7.81814C6.58965 7.86099 6.60702 7.90385 6.64523 7.92528C6.65565 7.93242 6.78418 8.00742 6.94049 8.07528C6.93702 8.08242 6.93354 8.08957 6.93007 8.09671C6.91618 8.13599 6.93354 8.17885 6.96481 8.20385C6.9926 8.22171 7.61091 8.65385 8.32996 8.65385C8.37859 8.65385 8.42375 8.65028 8.47238 8.64671C8.52101 8.64314 8.55922 8.59671 8.55575 8.54671C8.55227 8.49671 8.50712 8.45742 8.45848 8.46099C8.00691 8.50028 7.56922 8.32528 7.3087 8.18956C7.34344 8.18242 7.36428 8.17171 7.36775 8.17171C7.40944 8.15385 7.43028 8.11099 7.42333 8.06814C7.41638 8.02528 7.37817 7.99314 7.33649 7.99314C7.23228 7.98956 7.08638 7.93956 6.96133 7.88242C7.00996 7.85742 7.03775 7.83599 7.03775 7.83242C7.06554 7.80742 7.07596 7.77171 7.06902 7.73599C7.0586 7.70028 7.03081 7.67528 6.99607 7.66814C6.95786 7.66099 6.90923 7.65028 6.8606 7.63242C6.90923 7.60385 6.93007 7.57171 6.93702 7.55385C6.95091 7.52885 6.95091 7.49671 6.93702 7.47171C6.92312 7.44671 6.90228 7.42528 6.87449 7.42171C6.85018 7.41814 6.82239 7.40742 6.7946 7.39671C6.80154 7.38956 6.80502 7.38599 6.80849 7.37885C6.83281 7.33956 6.82239 7.28599 6.78765 7.25742C6.78418 7.25742 6.7147 7.20028 6.60702 7.10385C6.62439 7.09671 6.63828 7.08599 6.6487 7.06814C6.67302 7.03242 6.66954 6.98956 6.64523 6.95742C6.64176 6.95385 6.57228 6.86456 6.47502 6.72528C6.50628 6.75028 6.53754 6.77885 6.57228 6.79671C6.58618 6.80742 6.60355 6.81099 6.62091 6.81099C6.64523 6.81099 6.66607 6.80385 6.68344 6.78599C6.69039 6.77885 6.69733 6.77171 6.70081 6.76099C6.75639 6.82171 6.81544 6.87528 6.87449 6.92171C6.88144 6.92885 6.89186 6.92885 6.90228 6.93242C6.9266 6.97528 6.95439 7.02171 6.98217 7.06456C7.53449 7.93599 8.31259 8.40385 9.24353 8.43242C9.15669 8.48599 9.0629 8.54314 8.91701 8.60028C8.88575 8.61456 8.85796 8.62528 8.82669 8.63956C8.8128 8.64314 8.7989 8.64671 8.78848 8.65742C8.53143 8.77885 8.42375 8.90028 8.38206 8.98599C8.34038 9.07171 8.37512 9.15742 8.42722 9.20028C8.44459 9.21456 8.46543 9.22171 8.48627 9.22171C8.50017 9.22171 8.51406 9.21814 8.52796 9.21099C8.55922 9.19314 8.58006 9.16099 8.58006 9.12171C8.58354 9.11814 8.6009 9.10385 8.64954 9.10385C8.68427 9.10028 8.76069 9.10742 8.85101 9.11814C8.93438 9.12528 9.03511 9.13242 9.1428 9.13956C9.0768 9.22171 8.9969 9.31456 8.9969 9.31456C8.97259 9.34314 8.96911 9.38242 8.98301 9.41456C9.00038 9.44671 9.03164 9.46814 9.06638 9.46814C9.13932 9.46456 9.18795 9.46456 9.21922 9.46456C9.24701 9.50385 9.28174 9.51814 9.30259 9.52171C9.36511 9.53956 9.42764 9.51099 9.4728 9.48242C9.50753 9.50742 9.54227 9.51814 9.57353 9.52528C9.63606 9.53242 9.69511 9.51456 9.73679 9.49314C9.78195 9.52171 9.82364 9.52885 9.85837 9.52885C9.92785 9.52885 9.99037 9.49314 10.0355 9.45742C10.0737 9.48242 10.112 9.48956 10.1397 9.48956C10.2057 9.49314 10.2578 9.46456 10.2961 9.44314C10.4246 9.46814 10.5357 9.40742 10.6087 9.33956C10.6434 9.36099 10.6747 9.36456 10.699 9.36456C10.765 9.36099 10.8136 9.32171 10.8449 9.28599C10.9908 9.30385 11.095 9.27528 11.1541 9.20385C11.1853 9.16456 11.1992 9.11814 11.2027 9.07885C11.6056 9.07528 11.6404 8.85028 11.6438 8.82171C11.6473 8.79671 11.6404 8.77171 11.623 8.75028C11.6056 8.73242 11.5848 8.71814 11.5605 8.71814L10.5045 8.65385C10.4593 8.65028 10.4211 8.68242 10.4107 8.72528C10.4107 8.72528 10.3933 8.79671 10.3377 8.85028C10.2613 8.92528 10.1397 8.96456 10.0077 8.98599C10.0077 8.97171 10.0077 8.96099 10.0008 8.94671C9.98342 8.90028 9.93132 8.87528 9.88269 8.89314C9.66385 8.97885 9.31301 8.96814 9.03511 8.95028C9.0768 8.91456 9.1289 8.87885 9.17059 8.85742C9.20532 8.83956 9.22269 8.79671 9.21574 8.75742C9.2088 8.72885 9.19143 8.70742 9.16711 8.69671C9.24353 8.65742 9.30606 8.61814 9.36511 8.58242C9.46932 8.51814 9.56658 8.45385 9.74374 8.39314C10.0876 8.27171 10.4871 8.23242 10.4906 8.23242C10.501 8.23242 10.5079 8.22885 10.5184 8.22528C10.5323 8.21814 11.6577 7.73599 12.1857 6.61814C12.1788 6.65028 12.1718 6.68242 12.1649 6.71099C12.151 6.75742 12.1718 6.80742 12.217 6.82528C12.2517 6.83956 12.2899 6.83242 12.3143 6.80742C12.2795 6.89671 12.2517 6.96814 12.2274 7.01099C12.2031 7.05385 12.2135 7.11099 12.2552 7.13599C12.2656 7.14314 12.276 7.14671 12.2865 7.15028C12.2448 7.21099 12.2031 7.27171 12.1614 7.32528C12.1336 7.36099 12.1371 7.41099 12.1649 7.44671C12.0954 7.52171 12.0294 7.58599 11.9843 7.62528C11.953 7.65028 11.9426 7.69671 11.9565 7.73242C11.9113 7.76099 11.8731 7.77885 11.8453 7.78599C11.8002 7.80028 11.7724 7.84671 11.7828 7.89314C11.7863 7.91814 11.8002 7.93956 11.8175 7.95385C11.7619 7.96814 11.7029 7.98242 11.6369 7.99671C11.5987 8.00385 11.5709 8.03599 11.5639 8.07171C11.557 8.11099 11.5744 8.15028 11.6091 8.16814C11.6126 8.16814 11.6438 8.18956 11.689 8.20742C11.5118 8.27885 11.1992 8.37528 10.6851 8.42885C10.6365 8.43242 10.5983 8.47885 10.6052 8.53242C10.6087 8.58242 10.6538 8.61814 10.7059 8.61814C11.682 8.51814 11.9843 8.26814 11.9982 8.25742C12.0259 8.23242 12.0364 8.19314 12.0259 8.15742C12.019 8.13242 12.0016 8.11456 11.9808 8.10385C12.2934 8.00385 12.4289 7.88956 12.4358 7.88599C12.4706 7.85742 12.4775 7.80742 12.4567 7.76814C12.4324 7.72885 12.3872 7.71099 12.3455 7.72885C12.3351 7.73242 12.3143 7.73956 12.2934 7.74314C12.5018 7.59671 12.7242 7.41814 12.8249 7.34314C12.8423 7.32885 12.8561 7.31814 12.87 7.30385C12.9083 7.27171 12.9117 7.21456 12.8805 7.17171C12.8492 7.13242 12.7936 7.12528 12.7554 7.15742C12.7415 7.16814 12.7276 7.18242 12.7103 7.19314C12.6651 7.22885 12.606 7.26814 12.5435 7.30742C12.7797 7.02885 13.0194 6.72885 13.0889 6.64314C13.0958 6.63599 13.1028 6.62885 13.1063 6.61814C13.1375 6.57885 13.1306 6.51814 13.0924 6.48599C13.0541 6.45385 12.9951 6.46099 12.9638 6.50028C12.9638 6.50385 12.9534 6.51099 12.943 6.52885C12.87 6.61814 12.7971 6.70742 12.7207 6.78599C12.9638 6.33599 13.1479 5.88956 13.1723 5.82528C13.1723 5.82171 13.1757 5.82171 13.1757 5.81814C13.2 5.75385 13.1792 5.70028 13.1306 5.67885ZM8.87185 8.82885L8.89617 8.83242C8.8649 8.86099 8.84059 8.89314 8.81975 8.92885C8.77806 8.92528 8.73638 8.92171 8.70511 8.92171C8.75375 8.89314 8.80585 8.86099 8.87185 8.82885Z" fill="#FEC50C"/>
</svg>
