<svg width="24" height="24" viewBox="0 0 24 24" fill="none" xmlns="http://www.w3.org/2000/svg">
<path d="M12.5 22C17.7467 22 22 17.7467 22 12.5C22 7.25329 17.7467 3 12.5 3C7.25329 3 3 7.25329 3 12.5C3 17.7467 7.25329 22 12.5 22Z" stroke="#143F95" stroke-width="1.8" stroke-linecap="round" stroke-linejoin="round"/>
<path d="M3.6333 9.33325H21.3666" stroke="#143F95" stroke-width="1.8" stroke-linecap="round" stroke-linejoin="round"/>
<path d="M3.6333 15.6667H21.3666" stroke="#143F95" stroke-width="1.8" stroke-linecap="round" stroke-linejoin="round"/>
<path d="M11.9722 3C10.194 5.84959 9.25122 9.14108 9.25122 12.5C9.25122 15.8589 10.194 19.1504 11.9722 22" stroke="#143F95" stroke-width="1.8" stroke-linecap="round" stroke-linejoin="round"/>
<path d="M13.0278 3C14.8061 5.84959 15.7488 9.14108 15.7488 12.5C15.7488 15.8589 14.8061 19.1504 13.0278 22" stroke="#143F95" stroke-width="1.8" stroke-linecap="round" stroke-linejoin="round"/>
</svg>
