<svg width="28" height="28" viewBox="0 0 28 28" fill="none" xmlns="http://www.w3.org/2000/svg">
<path d="M20.4194 10.2212C20.4194 8.4386 19.7556 6.72905 18.5738 5.46859C17.3922 4.20812 15.7895 3.5 14.1183 3.5C12.4472 3.5 10.8444 4.20812 9.66276 5.46859C8.48107 6.72905 7.81721 8.4386 7.81721 10.2212C7.81721 18.0626 4.66666 20.3029 4.66666 20.3029H23.57C23.57 20.3029 20.4194 18.0626 20.4194 10.2212Z" stroke="#A1A7B1" stroke-width="2" stroke-linecap="round" stroke-linejoin="round"/>
<path d="M15.9351 23.4534C15.7505 23.7717 15.4856 24.036 15.1666 24.2195C14.8478 24.4032 14.4863 24.4999 14.1183 24.4999C13.7503 24.4999 13.3889 24.4032 13.07 24.2195C12.7512 24.036 12.4861 23.7717 12.3015 23.4534" stroke="#A1A7B1" stroke-width="2" stroke-linecap="round" stroke-linejoin="round"/>
</svg>
